<svg width="600" height="400" viewBox="0 0 600 400" fill="none" xmlns="http://www.w3.org/2000/svg">
<rect width="600" height="400" fill="white"/>
<path d="M255.565 195.48H249.804C249.582 194.249 249.17 193.166 248.567 192.23C247.964 191.295 247.225 190.5 246.351 189.848C245.477 189.196 244.498 188.703 243.415 188.371C242.344 188.038 241.205 187.872 239.999 187.872C237.82 187.872 235.868 188.42 234.145 189.516C232.434 190.611 231.08 192.218 230.082 194.335C229.098 196.453 228.605 199.038 228.605 202.091C228.605 205.169 229.098 207.766 230.082 209.884C231.08 212.001 232.44 213.601 234.163 214.685C235.887 215.768 237.826 216.31 239.98 216.31C241.174 216.31 242.307 216.15 243.378 215.83C244.461 215.497 245.44 215.011 246.314 214.371C247.188 213.731 247.927 212.949 248.53 212.026C249.145 211.09 249.57 210.019 249.804 208.812L255.565 208.831C255.258 210.69 254.661 212.401 253.774 213.964C252.9 215.516 251.774 216.857 250.395 217.99C249.028 219.11 247.465 219.978 245.705 220.594C243.944 221.209 242.024 221.517 239.943 221.517C236.669 221.517 233.751 220.741 231.19 219.19C228.63 217.627 226.611 215.393 225.134 212.487C223.669 209.582 222.936 206.116 222.936 202.091C222.936 198.053 223.675 194.588 225.152 191.695C226.629 188.789 228.648 186.561 231.209 185.01C233.769 183.446 236.681 182.665 239.943 182.665C241.95 182.665 243.821 182.954 245.557 183.533C247.305 184.099 248.875 184.936 250.266 186.044C251.657 187.14 252.808 188.482 253.719 190.07C254.63 191.645 255.245 193.449 255.565 195.48ZM267.471 183.182V221H261.95V183.182H267.471ZM274.899 221V192.636H280.42V221H274.899ZM277.688 188.26C276.727 188.26 275.902 187.94 275.213 187.3C274.536 186.647 274.197 185.872 274.197 184.973C274.197 184.062 274.536 183.286 275.213 182.646C275.902 181.994 276.727 181.668 277.688 181.668C278.648 181.668 279.466 181.994 280.143 182.646C280.833 183.286 281.178 184.062 281.178 184.973C281.178 185.872 280.833 186.647 280.143 187.3C279.466 187.94 278.648 188.26 277.688 188.26ZM299.796 221.572C297.051 221.572 294.687 220.951 292.705 219.707C290.735 218.452 289.221 216.722 288.162 214.518C287.104 212.315 286.574 209.791 286.574 206.947C286.574 204.067 287.116 201.525 288.199 199.321C289.283 197.105 290.809 195.375 292.779 194.132C294.748 192.889 297.069 192.267 299.74 192.267C301.895 192.267 303.815 192.667 305.502 193.467C307.188 194.255 308.549 195.363 309.583 196.791C310.629 198.219 311.251 199.887 311.448 201.795H306.074C305.779 200.466 305.102 199.321 304.043 198.361C302.997 197.401 301.593 196.92 299.833 196.92C298.294 196.92 296.946 197.327 295.789 198.139C294.644 198.939 293.751 200.084 293.111 201.574C292.471 203.051 292.151 204.799 292.151 206.818C292.151 208.886 292.465 210.671 293.093 212.173C293.721 213.675 294.607 214.839 295.752 215.663C296.909 216.488 298.269 216.901 299.833 216.901C300.879 216.901 301.827 216.71 302.676 216.328C303.538 215.934 304.258 215.374 304.837 214.648C305.428 213.921 305.84 213.047 306.074 212.026H311.448C311.251 213.86 310.654 215.497 309.657 216.938C308.659 218.378 307.324 219.51 305.65 220.335C303.988 221.16 302.036 221.572 299.796 221.572ZM322.43 211.379L322.393 204.639H323.354L334.655 192.636H341.266L328.376 206.301H327.509L322.43 211.379ZM317.352 221V183.182H322.874V221H317.352ZM335.264 221L325.108 207.52L328.912 203.661L342.041 221H335.264ZM360.502 183.182H367.427L379.467 212.58H379.91L391.95 183.182H398.875V221H393.446V193.634H393.095L381.941 220.945H377.436L366.282 193.615H365.931V221H360.502V183.182ZM418.952 221.572C416.157 221.572 413.75 220.975 411.732 219.781C409.725 218.575 408.174 216.882 407.078 214.703C405.995 212.512 405.453 209.945 405.453 207.003C405.453 204.098 405.995 201.537 407.078 199.321C408.174 197.105 409.7 195.375 411.658 194.132C413.627 192.889 415.929 192.267 418.564 192.267C420.164 192.267 421.715 192.532 423.217 193.061C424.719 193.59 426.067 194.421 427.261 195.554C428.455 196.687 429.397 198.158 430.087 199.967C430.776 201.765 431.121 203.95 431.121 206.523V208.48H408.574V204.344H425.71C425.71 202.891 425.415 201.605 424.824 200.484C424.233 199.352 423.402 198.459 422.331 197.807C421.272 197.154 420.029 196.828 418.601 196.828C417.05 196.828 415.696 197.21 414.538 197.973C413.393 198.724 412.507 199.709 411.879 200.928C411.264 202.134 410.956 203.445 410.956 204.861V208.092C410.956 209.988 411.288 211.601 411.953 212.93C412.63 214.26 413.572 215.276 414.778 215.977C415.985 216.667 417.394 217.011 419.007 217.011C420.054 217.011 421.008 216.864 421.869 216.568C422.731 216.26 423.476 215.805 424.104 215.202C424.732 214.598 425.212 213.854 425.544 212.967L430.77 213.909C430.351 215.448 429.6 216.796 428.517 217.953C427.446 219.098 426.098 219.991 424.473 220.631C422.86 221.259 421.02 221.572 418.952 221.572ZM449.471 221.572C446.677 221.572 444.27 220.975 442.251 219.781C440.244 218.575 438.693 216.882 437.598 214.703C436.514 212.512 435.973 209.945 435.973 207.003C435.973 204.098 436.514 201.537 437.598 199.321C438.693 197.105 440.22 195.375 442.177 194.132C444.147 192.889 446.449 192.267 449.083 192.267C450.684 192.267 452.235 192.532 453.737 193.061C455.239 193.59 456.587 194.421 457.781 195.554C458.975 196.687 459.917 198.158 460.606 199.967C461.296 201.765 461.64 203.95 461.64 206.523V208.48H439.093V204.344H456.23C456.23 202.891 455.934 201.605 455.343 200.484C454.752 199.352 453.922 198.459 452.85 197.807C451.792 197.154 450.548 196.828 449.12 196.828C447.569 196.828 446.215 197.21 445.058 197.973C443.913 198.724 443.027 199.709 442.399 200.928C441.783 202.134 441.475 203.445 441.475 204.861V208.092C441.475 209.988 441.808 211.601 442.473 212.93C443.15 214.26 444.092 215.276 445.298 215.977C446.504 216.667 447.914 217.011 449.527 217.011C450.573 217.011 451.527 216.864 452.389 216.568C453.251 216.26 453.995 215.805 454.623 215.202C455.251 214.598 455.731 213.854 456.064 212.967L461.289 213.909C460.871 215.448 460.12 216.796 459.037 217.953C457.966 219.098 456.618 219.991 454.993 220.631C453.38 221.259 451.539 221.572 449.471 221.572ZM479.991 221.572C477.196 221.572 474.79 220.975 472.771 219.781C470.764 218.575 469.213 216.882 468.117 214.703C467.034 212.512 466.492 209.945 466.492 207.003C466.492 204.098 467.034 201.537 468.117 199.321C469.213 197.105 470.739 195.375 472.697 194.132C474.666 192.889 476.969 192.267 479.603 192.267C481.203 192.267 482.754 192.532 484.256 193.061C485.758 193.59 487.106 194.421 488.3 195.554C489.495 196.687 490.436 198.158 491.126 199.967C491.815 201.765 492.16 203.95 492.16 206.523V208.48H469.613V204.344H486.749C486.749 202.891 486.454 201.605 485.863 200.484C485.272 199.352 484.441 198.459 483.37 197.807C482.311 197.154 481.068 196.828 479.64 196.828C478.089 196.828 476.735 197.21 475.577 197.973C474.433 198.724 473.546 199.709 472.918 200.928C472.303 202.134 471.995 203.445 471.995 204.861V208.092C471.995 209.988 472.327 211.601 472.992 212.93C473.669 214.26 474.611 215.276 475.817 215.977C477.024 216.667 478.433 217.011 480.046 217.011C481.093 217.011 482.047 216.864 482.908 216.568C483.77 216.26 484.515 215.805 485.143 215.202C485.771 214.598 486.251 213.854 486.583 212.967L491.809 213.909C491.39 215.448 490.639 216.796 489.556 217.953C488.485 219.098 487.137 219.991 485.512 220.631C483.899 221.259 482.059 221.572 479.991 221.572Z" fill="black"/>
<path d="M121 153.347V238.805C121 241.616 123.289 243.875 126.088 243.875C127.544 243.875 128.955 243.253 129.926 242.146L149.027 220.367L162.463 247.171C164.29 250.812 168.73 252.287 172.384 250.466C176.038 248.646 177.518 244.221 175.691 240.579L162.579 214.375H189.889C192.711 214.375 195 212.093 195 209.282C195 207.83 194.376 206.447 193.289 205.479L129.926 149.36C128.932 148.484 127.683 148 126.365 148C123.405 148 121 150.397 121 153.347Z" fill="#FF9500"/>
</svg>
