<svg width="600" height="300" viewBox="0 0 600 300" fill="none" xmlns="http://www.w3.org/2000/svg">
<rect width="600" height="300" fill="white"/>
<path d="M228.565 145.48H222.804C222.582 144.249 222.17 143.166 221.567 142.23C220.964 141.295 220.225 140.5 219.351 139.848C218.477 139.196 217.498 138.703 216.415 138.371C215.344 138.038 214.205 137.872 212.999 137.872C210.82 137.872 208.868 138.42 207.145 139.516C205.434 140.611 204.08 142.218 203.082 144.335C202.098 146.453 201.605 149.038 201.605 152.091C201.605 155.169 202.098 157.766 203.082 159.884C204.08 162.001 205.44 163.601 207.163 164.685C208.887 165.768 210.826 166.31 212.98 166.31C214.174 166.31 215.307 166.15 216.378 165.83C217.461 165.497 218.44 165.011 219.314 164.371C220.188 163.731 220.927 162.949 221.53 162.026C222.145 161.09 222.57 160.019 222.804 158.812L228.565 158.831C228.258 160.69 227.661 162.401 226.774 163.964C225.9 165.516 224.774 166.857 223.395 167.99C222.028 169.11 220.465 169.978 218.705 170.594C216.944 171.209 215.024 171.517 212.943 171.517C209.669 171.517 206.751 170.741 204.19 169.19C201.63 167.627 199.611 165.393 198.134 162.487C196.669 159.582 195.936 156.116 195.936 152.091C195.936 148.053 196.675 144.588 198.152 141.695C199.629 138.789 201.648 136.561 204.209 135.01C206.769 133.446 209.681 132.665 212.943 132.665C214.95 132.665 216.821 132.954 218.557 133.533C220.305 134.099 221.875 134.936 223.266 136.044C224.657 137.14 225.808 138.482 226.719 140.07C227.63 141.645 228.245 143.449 228.565 145.48ZM240.471 133.182V171H234.95V133.182H240.471ZM247.899 171V142.636H253.42V171H247.899ZM250.688 138.26C249.727 138.26 248.902 137.94 248.213 137.3C247.536 136.647 247.197 135.872 247.197 134.973C247.197 134.062 247.536 133.286 248.213 132.646C248.902 131.994 249.727 131.668 250.688 131.668C251.648 131.668 252.466 131.994 253.143 132.646C253.833 133.286 254.178 134.062 254.178 134.973C254.178 135.872 253.833 136.647 253.143 137.3C252.466 137.94 251.648 138.26 250.688 138.26ZM272.796 171.572C270.051 171.572 267.687 170.951 265.705 169.707C263.735 168.452 262.221 166.722 261.162 164.518C260.104 162.315 259.574 159.791 259.574 156.947C259.574 154.067 260.116 151.525 261.199 149.321C262.283 147.105 263.809 145.375 265.779 144.132C267.748 142.889 270.069 142.267 272.74 142.267C274.895 142.267 276.815 142.667 278.502 143.467C280.188 144.255 281.549 145.363 282.583 146.791C283.629 148.219 284.251 149.887 284.448 151.795H279.074C278.779 150.466 278.102 149.321 277.043 148.361C275.997 147.401 274.593 146.92 272.833 146.92C271.294 146.92 269.946 147.327 268.789 148.139C267.644 148.939 266.751 150.084 266.111 151.574C265.471 153.051 265.151 154.799 265.151 156.818C265.151 158.886 265.465 160.671 266.093 162.173C266.721 163.675 267.607 164.839 268.752 165.663C269.909 166.488 271.269 166.901 272.833 166.901C273.879 166.901 274.827 166.71 275.676 166.328C276.538 165.934 277.258 165.374 277.837 164.648C278.428 163.921 278.84 163.047 279.074 162.026H284.448C284.251 163.86 283.654 165.497 282.657 166.938C281.659 168.378 280.324 169.51 278.65 170.335C276.988 171.16 275.036 171.572 272.796 171.572ZM295.43 161.379L295.393 154.639H296.354L307.655 142.636H314.266L301.376 156.301H300.509L295.43 161.379ZM290.352 171V133.182H295.874V171H290.352ZM308.264 171L298.108 157.52L301.912 153.661L315.041 171H308.264ZM333.502 133.182H340.427L352.467 162.58H352.91L364.95 133.182H371.875V171H366.446V143.634H366.095L354.941 170.945H350.436L339.282 143.615H338.931V171H333.502V133.182ZM391.952 171.572C389.157 171.572 386.75 170.975 384.732 169.781C382.725 168.575 381.174 166.882 380.078 164.703C378.995 162.512 378.453 159.945 378.453 157.003C378.453 154.098 378.995 151.537 380.078 149.321C381.174 147.105 382.7 145.375 384.658 144.132C386.627 142.889 388.929 142.267 391.564 142.267C393.164 142.267 394.715 142.532 396.217 143.061C397.719 143.59 399.067 144.421 400.261 145.554C401.455 146.687 402.397 148.158 403.087 149.967C403.776 151.765 404.121 153.95 404.121 156.523V158.48H381.574V154.344H398.71C398.71 152.891 398.415 151.605 397.824 150.484C397.233 149.352 396.402 148.459 395.331 147.807C394.272 147.154 393.029 146.828 391.601 146.828C390.05 146.828 388.696 147.21 387.538 147.973C386.393 148.724 385.507 149.709 384.879 150.928C384.264 152.134 383.956 153.445 383.956 154.861V158.092C383.956 159.988 384.288 161.601 384.953 162.93C385.63 164.26 386.572 165.276 387.778 165.977C388.985 166.667 390.394 167.011 392.007 167.011C393.054 167.011 394.008 166.864 394.869 166.568C395.731 166.26 396.476 165.805 397.104 165.202C397.732 164.598 398.212 163.854 398.544 162.967L403.77 163.909C403.351 165.448 402.6 166.796 401.517 167.953C400.446 169.098 399.098 169.991 397.473 170.631C395.86 171.259 394.02 171.572 391.952 171.572ZM422.471 171.572C419.677 171.572 417.27 170.975 415.251 169.781C413.244 168.575 411.693 166.882 410.598 164.703C409.514 162.512 408.973 159.945 408.973 157.003C408.973 154.098 409.514 151.537 410.598 149.321C411.693 147.105 413.22 145.375 415.177 144.132C417.147 142.889 419.449 142.267 422.083 142.267C423.684 142.267 425.235 142.532 426.737 143.061C428.239 143.59 429.587 144.421 430.781 145.554C431.975 146.687 432.917 148.158 433.606 149.967C434.296 151.765 434.64 153.95 434.64 156.523V158.48H412.093V154.344H429.23C429.23 152.891 428.934 151.605 428.343 150.484C427.752 149.352 426.922 148.459 425.85 147.807C424.792 147.154 423.548 146.828 422.12 146.828C420.569 146.828 419.215 147.21 418.058 147.973C416.913 148.724 416.027 149.709 415.399 150.928C414.783 152.134 414.475 153.445 414.475 154.861V158.092C414.475 159.988 414.808 161.601 415.473 162.93C416.15 164.26 417.092 165.276 418.298 165.977C419.504 166.667 420.914 167.011 422.527 167.011C423.573 167.011 424.527 166.864 425.389 166.568C426.251 166.26 426.995 165.805 427.623 165.202C428.251 164.598 428.731 163.854 429.064 162.967L434.289 163.909C433.871 165.448 433.12 166.796 432.037 167.953C430.966 169.098 429.618 169.991 427.993 170.631C426.38 171.259 424.539 171.572 422.471 171.572ZM452.991 171.572C450.196 171.572 447.79 170.975 445.771 169.781C443.764 168.575 442.213 166.882 441.117 164.703C440.034 162.512 439.492 159.945 439.492 157.003C439.492 154.098 440.034 151.537 441.117 149.321C442.213 147.105 443.739 145.375 445.697 144.132C447.666 142.889 449.969 142.267 452.603 142.267C454.203 142.267 455.754 142.532 457.256 143.061C458.758 143.59 460.106 144.421 461.3 145.554C462.495 146.687 463.436 148.158 464.126 149.967C464.815 151.765 465.16 153.95 465.16 156.523V158.48H442.613V154.344H459.749C459.749 152.891 459.454 151.605 458.863 150.484C458.272 149.352 457.441 148.459 456.37 147.807C455.311 147.154 454.068 146.828 452.64 146.828C451.089 146.828 449.735 147.21 448.577 147.973C447.433 148.724 446.546 149.709 445.918 150.928C445.303 152.134 444.995 153.445 444.995 154.861V158.092C444.995 159.988 445.327 161.601 445.992 162.93C446.669 164.26 447.611 165.276 448.817 165.977C450.024 166.667 451.433 167.011 453.046 167.011C454.093 167.011 455.047 166.864 455.908 166.568C456.77 166.26 457.515 165.805 458.143 165.202C458.771 164.598 459.251 163.854 459.583 162.967L464.809 163.909C464.39 165.448 463.639 166.796 462.556 167.953C461.485 169.098 460.137 169.991 458.512 170.631C456.899 171.259 455.059 171.572 452.991 171.572Z" fill="black"/>
<path d="M94 103.347V188.805C94 191.616 96.2894 193.875 99.0875 193.875C100.544 193.875 101.955 193.253 102.926 192.146L122.027 170.367L135.463 197.171C137.29 200.812 141.73 202.287 145.384 200.466C149.038 198.646 150.518 194.221 148.691 190.579L135.579 164.375H162.889C165.711 164.375 168 162.093 168 159.282C168 157.83 167.376 156.447 166.289 155.479L102.926 99.3598C101.932 98.484 100.683 98 99.365 98C96.405 98 94 100.397 94 103.347Z" fill="#FF9500"/>
</svg>
